<svg width="70" height="71" viewBox="0 0 70 71" fill="none" xmlns="http://www.w3.org/2000/svg">
<path d="M53.1874 0.243099H17.3909C8.31543 0.243099 0.952135 7.58472 0.952135 16.6437V32.1235C0.952135 32.3514 1.2498 32.4389 1.3698 32.2455C2.58124 30.2749 4.48725 28.051 7.40857 26.4763C7.4801 26.4372 7.52856 26.3612 7.52856 26.2806V16.646C7.52856 11.2106 11.9452 6.80428 17.3932 6.80428H53.2982C58.5201 6.80428 63.0382 10.7456 63.3982 15.9439C63.6059 18.9367 62.4706 21.6694 60.5369 23.5986C58.7555 25.3828 56.2818 26.4855 53.5589 26.4855H17.3378C13.6619 26.4855 10.263 27.6919 7.52626 29.7385C6.27097 30.6778 5.15182 31.7851 4.21266 33.0444C4.19881 33.0582 4.18728 33.0766 4.17343 33.0973C3.30581 34.2576 2.59509 35.5376 2.06205 36.9097C1.34441 38.7469 0.949829 40.7405 0.949829 42.8263V54.0977C0.949829 63.1222 8.28312 70.4408 17.3309 70.4408H53.6166C57.5209 70.4408 61.1068 69.0779 63.9174 66.7988C64.0789 66.6676 64.0905 66.4212 63.9451 66.2716L59.0924 61.3357C58.9655 61.2068 58.767 61.1976 58.6262 61.3081C56.5403 62.9219 53.9258 63.8819 51.0807 63.8819H19.8761C15.1941 63.8819 11.1168 61.2782 9.02614 57.4451H19.7123C22.3151 57.4451 24.678 56.3884 26.3856 54.6825C28.2339 52.8384 29.3254 50.2186 29.1246 47.3547C28.7762 42.3866 24.4565 38.6226 19.4654 38.6226H9.54533C10.6576 36.9305 12.1759 35.5192 13.9642 34.5477C14.7396 34.1218 15.568 33.7811 16.4356 33.5371C17.527 33.2148 18.6785 33.0444 19.8738 33.0444H53.5543C57.2302 33.0444 60.6361 31.8381 63.3728 29.796C63.6036 29.6257 63.8597 29.4346 64.0766 29.2504L64.1481 29.186C64.2543 29.0939 64.3581 29.0018 64.4643 28.9097C64.7135 28.6933 64.9511 28.47 65.1819 28.2398C65.3457 28.0763 65.5096 27.906 65.6619 27.7356C65.7473 27.6435 65.8326 27.5514 65.918 27.4524L65.9318 27.4317C66.2087 27.1301 66.4649 26.8078 66.7072 26.4809C68.9109 23.5526 70.1569 19.8622 69.9769 15.8863C69.58 7.06442 62.0345 0.238495 53.1851 0.238495L53.1874 0.243099ZM17.3517 44.4608C19.9984 44.1293 22.2182 46.344 21.8882 48.9869C21.6644 50.778 20.1968 52.2399 18.4016 52.4655C15.7549 52.797 13.5327 50.5823 13.865 47.9394C14.0911 46.1483 15.5564 44.6865 17.3517 44.4608Z" fill="#048DFF"/>
<path d="M69.9954 26.6098V54.0977C69.9954 58.0483 68.5878 61.6742 66.248 64.4966C66.1026 64.667 65.8465 64.6739 65.6896 64.5173L60.8507 59.5976C60.7192 59.4664 60.7122 59.2638 60.8253 59.1119C62.4567 57.0261 63.4236 54.4154 63.4236 51.5677V33.323C63.4236 33.1917 63.4951 33.0674 63.6151 33.0007C64.7389 32.3768 65.8972 31.5779 66.9956 30.5281C68.0871 29.4783 69.1185 28.1937 70 26.6121L69.9954 26.6098Z" fill="white"/>
</svg>
