<svg width="26" height="25" viewBox="0 0 26 25" fill="none" xmlns="http://www.w3.org/2000/svg">
<path fill-rule="evenodd" clip-rule="evenodd" d="M12.5401 1.17136C6.29354 1.17136 1.21146 6.25344 1.21146 12.5C1.21146 18.7466 6.29354 23.8287 12.5401 23.8287C18.7867 23.8287 23.8688 18.7466 23.8688 12.5C23.8688 6.25344 18.7867 1.17136 12.5401 1.17136ZM12.5401 25C10.8529 25 9.21565 24.6694 7.67433 24.0174C6.18572 23.3879 4.84913 22.4866 3.70131 21.3388C2.55348 20.191 1.65222 18.8544 1.02271 17.3658C0.370731 15.8245 0.0401611 14.1872 0.0401611 12.5C0.0401611 10.8128 0.370731 9.17555 1.02271 7.63423C1.65223 6.14562 2.55349 4.80903 3.70131 3.6612C4.84914 2.51337 6.18572 1.61211 7.67433 0.982601C9.21565 0.330641 10.8529 6.10352e-05 12.5401 6.10352e-05C14.2273 6.10352e-05 15.8646 0.330641 17.4059 0.982601C18.8945 1.61212 20.2311 2.51338 21.3789 3.6612C22.5267 4.80903 23.428 6.14562 24.0575 7.63423C24.7095 9.17555 25.0401 10.8128 25.0401 12.5C25.0401 14.1872 24.7095 15.8245 24.0575 17.3658C23.428 18.8544 22.5267 20.191 21.3789 21.3388C20.2311 22.4867 18.8945 23.3879 17.4059 24.0174C15.8646 24.6694 14.2273 25 12.5401 25Z" fill="#DEDEDE"/>
<path fill-rule="evenodd" clip-rule="evenodd" d="M19.1559 18.0869L13.8291 12.7601C13.6852 12.6162 13.6852 12.3828 13.8291 12.2393L19.1559 6.91249C19.2998 6.76856 19.2998 6.53521 19.1559 6.39165L18.648 5.88372C18.5041 5.73982 18.2707 5.73982 18.1271 5.88372L12.8003 11.2105C12.6564 11.3545 12.4231 11.3545 12.2795 11.2105L6.95271 5.88372C6.80878 5.73982 6.57543 5.73982 6.43187 5.88372L5.92394 6.39165C5.78004 6.53555 5.78004 6.76893 5.92394 6.91249L11.2508 12.2393C11.3947 12.3832 11.3947 12.6166 11.2508 12.7601L5.92394 18.0869C5.78004 18.2308 5.78004 18.4642 5.92394 18.6078L6.43187 19.1157C6.57577 19.2596 6.80915 19.2596 6.95271 19.1157L12.2795 13.7889C12.4234 13.645 12.6568 13.645 12.8003 13.7889L18.1271 19.1157C18.271 19.2596 18.5044 19.2596 18.648 19.1157L19.1559 18.6078C19.2998 18.4639 19.2998 18.2305 19.1559 18.0869Z" fill="#DEDEDE"/>
</svg>
