<svg width="27" height="28" viewBox="0 0 27 28" fill="none" xmlns="http://www.w3.org/2000/svg">
<path fill-rule="evenodd" clip-rule="evenodd" d="M13.3504 1.90061C6.67885 1.90061 1.25099 7.32845 1.25099 14C1.25099 20.6716 6.67885 26.0995 13.3504 26.0995C20.022 26.0995 25.4498 20.6716 25.4498 14C25.4498 7.32845 20.022 1.90061 13.3504 1.90061ZM13.3504 27.3504C11.5484 27.3504 9.79978 26.9974 8.15358 26.301C6.56369 25.6287 5.13617 24.6661 3.91025 23.4402C2.68433 22.2143 1.72174 20.7867 1.04939 19.1968C0.35307 17.5506 0 15.802 0 14C0 12.198 0.35307 10.4494 1.04939 8.80318C1.72174 7.21329 2.68432 5.78577 3.91025 4.55986C5.13617 3.33392 6.56369 2.37135 8.15358 1.699C9.79977 1.00267 11.5484 0.649597 13.3504 0.649597C15.1524 0.649597 16.9011 1.00267 18.5473 1.699C20.1371 2.37134 21.5647 3.33392 22.7906 4.55986C24.0165 5.78577 24.9791 7.21329 25.6514 8.80318C26.3478 10.4494 26.7008 12.198 26.7008 14C26.7008 15.802 26.3478 17.5506 25.6514 19.1968C24.9791 20.7867 24.0165 22.2143 22.7906 23.4402C21.5647 24.6661 20.1371 25.6287 18.5473 26.301C16.9011 26.9974 15.1524 27.3504 13.3504 27.3504Z" fill="#12D28D"/>
<path fill-rule="evenodd" clip-rule="evenodd" d="M11.8726 23.0646C11.6696 23.0591 11.4746 22.9738 11.332 22.8234L5.52439 16.697C5.23063 16.3869 5.24369 15.8973 5.55344 15.6035C5.86355 15.3096 6.35307 15.3223 6.64683 15.6325L11.6664 20.9275L18.4569 6.07064C18.6345 5.68201 19.0931 5.51095 19.4817 5.68891C19.8702 5.86652 20.0412 6.3256 19.8633 6.71384L12.5967 22.6127C12.4899 22.8467 12.2739 23.0119 12.0204 23.054C11.971 23.0624 11.9217 23.0657 11.8726 23.0642L11.8726 23.0646Z" fill="#12D28D"/>
</svg>
