<svg width="14" height="20" viewBox="0 0 14 20" fill="none" xmlns="http://www.w3.org/2000/svg">
<path fill-rule="evenodd" clip-rule="evenodd" d="M12.4988 18.0352C12.4988 18.3745 12.2227 18.6506 11.8834 18.6506H2.02969C1.6904 18.6506 1.41427 18.3745 1.41427 18.0352V8.18141C1.41427 7.84212 1.69039 7.566 2.02969 7.566H3.09365H11.1114H11.8834C12.2227 7.566 12.4988 7.84212 12.4988 8.18141V18.0354L12.4988 18.0352ZM3.94742 4.00887C3.94742 2.26897 5.36289 0.85373 7.10254 0.85373C8.84219 0.85373 10.2577 2.26921 10.2577 4.00887V6.71202H3.94742V4.00887ZM11.8834 6.71202H11.1114V4.00887C11.1114 1.79844 9.31296 0 7.10254 0C4.89212 0 3.09366 1.79845 3.09366 4.00887V6.71202H2.0297C1.21961 6.71202 0.560547 7.37111 0.560547 8.18117V18.0352C0.560547 18.8452 1.21961 19.5043 2.0297 19.5043H11.8837C12.6938 19.5043 13.3528 18.8453 13.3528 18.0352V8.18141C13.3528 7.37134 12.6938 6.71226 11.8837 6.71226L11.8834 6.71202Z" fill="#DBD8D8"/>
</svg>
