<svg width="182" height="169" viewBox="0 0 182 169" fill="none" xmlns="http://www.w3.org/2000/svg">
<path d="M114.791 18.112H67.641C55.6872 18.112 45.9886 27.7821 45.9886 39.7142V60.1035C45.9886 60.4037 46.3806 60.5189 46.5387 60.2642C48.1344 57.6686 50.6449 54.7393 54.4927 52.6652C54.5869 52.6137 54.6508 52.5136 54.6508 52.4075V39.7173C54.6508 32.558 60.4681 26.7541 67.644 26.7541H114.936C121.815 26.7541 127.766 31.9454 128.24 38.7924C128.513 42.7344 127.018 46.3338 124.471 48.8748C122.125 51.2249 118.866 52.6774 115.28 52.6774H67.5711C62.7294 52.6774 58.2524 54.2663 54.6477 56.962C52.9943 58.1992 51.5202 59.6578 50.2832 61.3164C50.265 61.3346 50.2498 61.3589 50.2315 61.3862C49.0887 62.9145 48.1526 64.6004 47.4505 66.4077C46.5053 68.8275 45.9855 71.4535 45.9855 74.2007V89.047C45.9855 100.934 55.6446 110.573 67.562 110.573H115.356C120.499 110.573 125.222 108.778 128.924 105.776C129.136 105.603 129.152 105.279 128.96 105.082L122.568 98.5806C122.401 98.4107 122.14 98.3986 121.954 98.5442C119.207 100.67 115.763 101.934 112.016 101.934H70.9144C64.7475 101.934 59.377 98.5048 56.6233 93.4559H70.6986C74.127 93.4559 77.2393 92.0641 79.4884 89.8172C81.9229 87.3883 83.3606 83.9375 83.0961 80.1653C82.6372 73.6216 76.9475 68.6637 70.3734 68.6637H57.3072C58.7721 66.435 60.772 64.5762 63.1275 63.2965C64.1488 62.7356 65.2399 62.2868 66.3827 61.9654C67.8203 61.5408 69.3369 61.3164 70.9113 61.3164H115.274C120.116 61.3164 124.602 59.7275 128.206 57.0378C128.51 56.8135 128.848 56.5618 129.133 56.3192L129.228 56.2343C129.367 56.113 129.504 55.9917 129.644 55.8704C129.972 55.5854 130.285 55.2912 130.589 54.988C130.805 54.7727 131.021 54.5483 131.221 54.3239C131.334 54.2026 131.446 54.0813 131.559 53.9509L131.577 53.9237C131.942 53.5264 132.279 53.1019 132.598 52.6713C135.501 48.8142 137.142 43.9534 136.905 38.7166C136.382 27.0968 126.444 18.1059 114.788 18.1059L114.791 18.112ZM67.5893 76.3537C71.0755 75.917 73.9993 78.8341 73.5647 82.3152C73.2699 84.6744 71.3368 86.5999 68.9722 86.897C65.4861 87.3337 62.5592 84.4166 62.9968 80.9355C63.2947 78.5764 65.2247 76.6508 67.5893 76.3537Z" fill="#048DFF"/>
<path d="M136.929 52.8411V89.047C136.929 94.2504 135.075 99.0263 131.993 102.744C131.802 102.968 131.465 102.977 131.258 102.771L124.884 96.2911C124.711 96.1183 124.702 95.8515 124.851 95.6513C127 92.9041 128.273 89.4654 128.273 85.7144V61.6833C128.273 61.5105 128.367 61.3468 128.525 61.2588C130.006 60.4371 131.531 59.3848 132.978 58.0021C134.416 56.6194 135.774 54.9273 136.935 52.8441L136.929 52.8411Z" fill="white"/>
<path d="M17.6708 125.677H22.5885L28.3664 140.26H28.4515L34.2293 125.677H39.147V145.967H35.3569V132.242H35.2292L29.7462 145.967H27.0685L21.5734 132.242H21.4609V145.967H17.6708V125.677Z" fill="white"/>
<path d="M42.6483 135.93H51.7816V139.514H42.6483V135.93Z" fill="white"/>
<path d="M55.2617 125.677H68.7351V129.18H59.5168V134.043H68.2124V137.361H59.5168V142.464H68.7351V145.967H55.2617V125.677Z" fill="white"/>
<path d="M75.1634 138.459L70.4554 130.893H75.0935L77.8137 135.984H77.8988L80.5765 130.893H85.0595L80.3394 138.346L85.02 145.967H80.5522L77.6769 140.736H77.5918L74.7591 145.967H70.4311L75.1664 138.459H75.1634Z" fill="white"/>
<path d="M86.6947 130.893H90.81V133.522H90.9103C91.7279 131.693 93.3783 130.584 95.518 130.584C99.3506 130.584 101.691 133.51 101.691 138.416V138.431C101.691 143.325 99.3506 146.279 95.5757 146.279C93.4208 146.279 91.7127 145.181 90.8951 143.395H90.81V150.891H86.6947V130.896V130.893ZM97.5057 138.431V138.416C97.5057 135.66 96.2079 133.986 94.1655 133.986C92.123 133.986 90.7978 135.702 90.7978 138.428V138.443C90.7978 141.157 92.1656 142.874 94.1655 142.874C96.1654 142.874 97.5057 141.172 97.5057 138.431Z" fill="white"/>
<path d="M103.271 138.459V138.443C103.271 133.649 106.104 130.584 110.529 130.584C114.955 130.584 117.733 133.58 117.733 138.134V139.399H107.332C107.375 141.803 108.685 143.21 110.785 143.21C112.475 143.21 113.505 142.282 113.8 141.439L113.827 141.354H117.605L117.562 141.509C117.097 143.732 115.012 146.276 110.7 146.276C106.077 146.276 103.271 143.28 103.271 138.459ZM107.372 136.812H113.785C113.532 134.732 112.304 133.649 110.599 133.649C108.894 133.649 107.639 134.774 107.372 136.812Z" fill="white"/>
<path d="M119.845 130.893H123.96V133.367H124.045C124.82 131.639 126.371 130.584 128.653 130.584C131.978 130.584 133.869 132.706 133.869 136.236V145.967H129.753V137.079C129.753 135.111 128.823 133.986 126.975 133.986C125.127 133.986 123.96 135.335 123.96 137.303V145.963H119.845V130.89V130.893Z" fill="white"/>
<path d="M135.856 141.497L135.841 141.37H139.859L139.887 141.497C140.154 142.679 141.042 143.368 142.692 143.368C144.242 143.368 145.187 142.764 145.187 141.794V141.779C145.187 140.978 144.68 140.514 143.199 140.19L140.634 139.656C137.701 139.038 136.224 137.576 136.224 135.326V135.311C136.224 132.442 138.704 130.587 142.552 130.587C146.4 130.587 148.81 132.709 148.907 135.353V135.493H145.117L145.102 135.381C144.962 134.298 144.075 133.482 142.552 133.482C141.13 133.482 140.239 134.116 140.239 135.087V135.102C140.239 135.875 140.762 136.381 142.282 136.706L144.847 137.255C148.005 137.916 149.299 139.153 149.299 141.376V141.391C149.299 144.344 146.579 146.285 142.689 146.285C138.504 146.285 136.179 144.359 135.853 141.503L135.856 141.497Z" fill="white"/>
<path d="M150.783 138.459V138.443C150.783 133.649 153.615 130.584 158.041 130.584C162.466 130.584 165.244 133.58 165.244 138.134V139.399H154.843C154.886 141.803 156.196 143.21 158.296 143.21C159.986 143.21 161.016 142.282 161.311 141.439L161.338 141.354H165.116L165.074 141.509C164.609 143.732 162.524 146.276 158.211 146.276C153.588 146.276 150.783 143.28 150.783 138.459ZM154.883 136.812H161.296C161.044 134.732 159.816 133.649 158.111 133.649C156.406 133.649 155.15 134.774 154.883 136.812Z" fill="white"/>
</svg>
